<svg xmlns="http://www.w3.org/2000/svg" viewBox="0 0 1296 1126.52"><defs><style>.cls-1{fill:#2fa049;}.cls-2{fill:#b12027;}.cls-3{fill:#e9f4e9;}</style></defs><title>6</title><g id="Layer_2" data-name="Layer 2"><path class="cls-1" d="M315.5,941S365,924.5,410,927.5s88.5-6,105-18c0,0-58.5-138,61.5-243,0,0-120-28.5-130.5-174,0,0-147,49.5-322.5-96,0,0,102,167,40.5,353.5C164,750,308,786.5,315.5,941Z" transform="translate(-123.5 -114.5)"/><path class="cls-1" d="M849.5,831.5s-7.5-93-72-147-82.5-72-96-91.5c0,0,123-133.5,43.5-234,0,0,190.5-84,232.5-244.5,0,0,16.5,222,133.5,316.5,0,0-108,93-43.5,237.75C1047.5,668.75,920,714.5,849.5,831.5Z" transform="translate(-123.5 -114.5)"/><path class="cls-1" d="M1025,782s-13.5,43.5-90,64.5-96,30-96,30,199.5,33,151.5,249c0,0,67.5,45,124.5,93,0,0,97.46-120,304.5-75,0,0-189-109.5-181.5-276C1238,867.5,1125.5,918.5,1025,782Z" transform="translate(-123.5 -114.5)"/></g><g id="Layer_3" data-name="Layer 3"><path class="cls-2" d="M676,963s88-63,131-84c0,0,55.06-189.79-125.5-195C508.33,679,519,869,547,900,547,900,611,905,676,963Z" transform="translate(-123.5 -114.5)"/><path class="cls-3" d="M589.67,776.33S659,790.59,675,721.79C675,721.79,591.67,693,589.67,776.33Z" transform="translate(-123.5 -114.5)"/><path class="cls-2" d="M665,992s-43-59-107-58-156,48-156,154,91,154,153,153,111.8-55,117.9-80C672.9,1161,650,1059,665,992Z" transform="translate(-123.5 -114.5)"/><path class="cls-3" d="M465,1025.67s3.33-54.67,80-52c0,0-.59,50.39-39.66,58.33a49.6,49.6,0,0,1-14.34.67C484.4,1032.07,473.59,1030.39,465,1025.67Z" transform="translate(-123.5 -114.5)"/><path class="cls-2" d="M839,915s130-7,124,147-100,164-132,165-136-13-143-156S820.47,913.92,839,915Z" transform="translate(-123.5 -114.5)"/><path class="cls-3" d="M741.67,1003.24s14-49.57,62.66-51.57,5.34,62.66-35.33,62.66C769,1014.33,753,1016.14,741.67,1003.24Z" transform="translate(-123.5 -114.5)"/></g></svg>